<svg xmlns="http://www.w3.org/2000/svg" viewBox="0 0 120 120" width="100%" height="100%">
  <!-- Top Hook of P (Dark Slate / White) -->
  <path d="M 14,34 
           C 14,24 28,18 48,18 
           C 74,18 96,32 96,52 
           C 96,72 74,86 48,86 
           C 36,86 26,79 21,71 
           C 26,76 36,78 46,78 
           C 68,78 86,66 86,52 
           C 86,38 68,26 46,26 
           C 32,26 21,29 14,34 Z" 
        fill="#ffffff" />
        
  <!-- Bottom Orange Flame / Swoosh -->
  <path d="M 14,92 
           L 25,92 
           C 25,82 25,74 27,67 
           C 29,60 38,53 38,44 
           C 38,39 34,34 29,32 
           C 29,37 25,45 25,54 
           C 25,66 14,72 14,80 Z" 
        fill="#e65f1a" />
</svg>