<svg xmlns="http://www.w3.org/2000/svg" viewBox="0 0 240 200" width="100%" height="100%">
  <!-- Icon Group (Centered at X=120) -->
  <g transform="translate(60, 10)">
    <!-- Top Hook of P -->
    <path d="M 14,34 
             C 14,24 28,18 48,18 
             C 74,18 96,32 96,52 
             C 96,72 74,86 48,86 
             C 36,86 26,79 21,71 
             C 26,76 36,78 46,78 
             C 68,78 86,66 86,52 
             C 86,38 68,26 46,26 
             C 32,26 21,29 14,34 Z" 
          fill="#ffffff" />
          
    <!-- Bottom Orange Flame -->
    <path d="M 14,92 
             L 25,92 
             C 25,82 25,74 27,67 
             C 29,60 38,53 38,44 
             C 38,39 34,34 29,32 
             C 29,37 25,45 25,54 
             C 25,66 14,72 14,80 Z" 
          fill="#e65f1a" />
  </g>
  
  <!-- Vectorized Text Group (Centered) -->
  <path d="M41.46 166.76VHVHQ52.08 152.99 52.08 159.69Q52.08 162.85 49.80 164.81Q47.53 166.76 43.72 166.76ZM41.46 156.62VHQ47.10 163.18 47.10 159.86Q47.10 156.62 43.32 156.62ZM63.90 163.18Q63.07 162.72 61.95 162.72Q60.45 162.72 59.60 163.82Q58.75 164.93 58.75 166.84VHVHVHQ59.90 158.74 62.76 158.74Q63.49 158.74 63.90 158.91ZM72.62 174.37Q68.87 174.37 66.72 172.26Q64.58 170.16 64.58 166.56Q64.58 162.84 66.80 160.74Q69.03 158.63 72.82 158.63Q76.56 158.63 78.68 160.74Q80.81 162.84 80.81 166.29Q80.81 170.03 78.62 172.20Q76.43 174.37 72.62 174.37ZM72.73 162.18Q71.10 162.18 70.19 163.31Q69.28 164.44 69.28 166.50Q69.28 170.82 72.77 170.82Q76.09 170.82 76.09 166.38Q76.09 162.18 72.73 162.18ZM87.91 172.26HVHVHVHQ89.63 158.63 92.73 158.63Q95.65 158.63 97.23 160.63Q98.83 162.63 98.83 166.07Q98.83 169.82 96.97 172.09Q95.12 174.37 92.04 174.37Q89.33 174.37 87.91 172.26ZM87.78 166.11VQ87.78 168.86 88.60 169.84Q89.42 170.82 90.75 170.82Q92.33 170.82 93.21 169.60Q94.08 168.38 94.08 166.13Q94.08 162.18 91.00 162.18Q89.58 162.18 88.68 163.26Q87.78 164.33 87.78 166.11ZM115.64 174.00HVQ111.03 162.18 108.63 162.18Q107.40 162.18 106.63 163.10Q105.87 164.03 105.87 165.44VHVHVHQ107.63 158.63 110.55 158.63Q115.64 158.63 115.64 164.79ZM132.20 167.82HQ122.64 171.09 126.53 171.09Q129.00 171.09 130.88 169.91VQ128.80 174.37 125.47 174.37Q121.84 174.37 119.83 172.35Q117.82 170.34 117.82 166.74Q117.82 163.00 119.99 160.82Q122.16 158.63 125.32 158.63Q128.60 158.63 130.40 160.58Q132.20 162.53 132.20 165.87ZM127.90 164.97Q127.90 161.76 125.30 161.76Q124.18 161.76 123.37 162.68Q122.55 163.60 122.38 164.97ZM143.43 173.82Q142.40 174.37 140.34 174.37Q135.45 174.37 135.45 169.28VHVHVL140.06 154.44VHVHVQ140.06 170.82 141.92 170.82Q142.65 170.82 143.43 170.39Z" fill="#ffffff" />
  <path d="M160.97 173.25Q158.67 174.37 154.96 174.37Q150.12 174.37 147.35 171.53Q144.58 168.68 144.58 163.95Q144.58 158.91 147.70 155.78Q150.82 152.64 155.78 152.64Q158.85 152.64 160.97 153.42VQ158.85 156.71 156.16 156.71Q153.20 156.71 151.38 158.57Q149.57 160.44 149.57 163.61Q149.57 166.66 151.28 168.47Q153.00 170.28 155.90 170.28Q158.67 170.28 160.97 168.93ZM177.98 174.00HVQ173.37 162.18 170.97 162.18Q169.74 162.18 168.98 163.10Q168.22 164.03 168.22 165.44VHVHVHQ169.97 158.63 172.89 158.63Q177.98 158.63 177.98 164.79ZM194.54 167.82HQ184.98 171.09 188.87 171.09Q191.35 171.09 193.22 169.91VQ191.14 174.37 187.82 174.37Q184.18 174.37 182.17 172.35Q180.17 170.34 180.17 166.74Q180.17 163.00 182.33 160.82Q184.50 158.63 187.67 158.63Q190.95 158.63 192.74 160.58Q194.54 162.53 194.54 165.87ZM190.25 164.97Q190.25 161.76 187.64 161.76Q186.53 161.76 185.71 162.68Q184.90 163.60 184.72 164.97ZM206.49 155.34Q205.60 154.99 204.78 154.99Q202.55 154.99 202.55 157.41VHVHVHVHVHVQ197.93 154.57 199.61 153.01Q201.28 151.44 204.15 151.44Q205.55 151.44 206.49 151.74Z" fill="#e65f1a" />
</svg>