<svg xmlns="http://www.w3.org/2000/svg" viewBox="0 0 420 120" width="100%" height="100%">
  <!-- Icon Group -->
  <g transform="translate(10, 0)">
    <!-- Top Hook of P -->
    <path d="M 14,34 
             C 14,24 28,18 48,18 
             C 74,18 96,32 96,52 
             C 96,72 74,86 48,86 
             C 36,86 26,79 21,71 
             C 26,76 36,78 46,78 
             C 68,78 86,66 86,52 
             C 86,38 68,26 46,26 
             C 32,26 21,29 14,34 Z" 
          fill="#ffffff" />
          
    <!-- Bottom Orange Flame -->
    <path d="M 14,92 
             L 25,92 
             C 25,82 25,74 27,67 
             C 29,60 38,53 38,44 
             C 38,39 34,34 29,32 
             C 29,37 25,45 25,54 
             C 25,66 14,72 14,80 Z" 
          fill="#e65f1a" />
  </g>
  
  <!-- Vectorized Text Group -->
  <path d="M146.41 66.42VHVHQ163.41 44.39 163.41 55.10Q163.41 60.16 159.76 63.29Q156.12 66.42 150.02 66.42ZM146.41 50.20VHQ155.44 60.68 155.44 55.38Q155.44 50.20 149.39 50.20Z M182.32 60.68Q180.98 59.95 179.20 59.95Q176.79 59.95 175.43 61.72Q174.07 63.49 174.07 66.54VHVHVHQ175.92 53.58 180.49 53.58Q181.66 53.58 182.32 53.86Z M196.27 78.59Q190.27 78.59 186.83 75.22Q183.40 71.86 183.40 66.09Q183.40 60.14 186.96 56.78Q190.52 53.41 196.59 53.41Q202.57 53.41 205.97 56.78Q209.37 60.14 209.37 65.67Q209.37 71.65 205.86 75.12Q202.36 78.59 196.27 78.59ZM196.45 59.09Q193.83 59.09 192.38 60.89Q190.92 62.70 190.92 66.00Q190.92 72.91 196.50 72.91Q201.82 72.91 201.82 65.81Q201.82 59.09 196.45 59.09Z M220.73 75.21HVHVHVHQ223.48 53.41 228.45 53.41Q233.11 53.41 235.65 56.61Q238.20 59.81 238.20 65.32Q238.20 71.32 235.23 74.95Q232.27 78.59 227.34 78.59Q223.01 78.59 220.73 75.21ZM220.52 65.37VQ220.52 69.77 221.84 71.34Q223.15 72.91 225.28 72.91Q227.81 72.91 229.21 70.96Q230.60 69.00 230.60 65.41Q230.60 59.09 225.68 59.09Q223.41 59.09 221.96 60.81Q220.52 62.53 220.52 65.37Z M265.10 78.00HVQ257.72 59.09 253.88 59.09Q251.91 59.09 250.69 60.56Q249.47 62.04 249.47 64.31VHVHVHQ252.28 53.41 256.95 53.41Q265.10 53.41 265.10 63.26Z M291.59 68.11HQ276.30 73.34 282.52 73.34Q286.48 73.34 289.48 71.46VQ286.15 78.59 280.83 78.59Q275.02 78.59 271.80 75.36Q268.59 72.14 268.59 66.38Q268.59 60.40 272.06 56.91Q275.53 53.41 280.59 53.41Q285.84 53.41 288.71 56.53Q291.59 59.65 291.59 64.99ZM284.72 63.56Q284.72 58.41 280.55 58.41Q278.77 58.41 277.46 59.88Q276.16 61.36 275.88 63.56Z M309.56 77.72Q307.92 78.59 304.62 78.59Q296.79 78.59 296.79 70.45VHVHVL304.17 46.71VHVHVQ304.17 72.91 307.15 72.91Q308.32 72.91 309.56 72.23Z" fill="#ffffff" />
  <path d="M337.62 76.80Q333.94 78.59 328.01 78.59Q320.27 78.59 315.84 74.04Q311.41 69.49 311.41 61.92Q311.41 53.86 316.39 48.84Q321.38 43.83 329.32 43.83Q334.24 43.83 337.62 45.07VQ334.24 50.34 329.93 50.34Q325.20 50.34 322.29 53.32Q319.38 56.30 319.38 61.38Q319.38 66.26 322.12 69.15Q324.87 72.05 329.51 72.05Q333.94 72.05 337.62 69.89Z M364.85 78.00HVQ357.47 59.09 353.62 59.09Q351.66 59.09 350.44 60.56Q349.22 62.04 349.22 64.31VHVHVHQ352.03 53.41 356.70 53.41Q364.85 53.41 364.85 63.26Z M391.34 68.11HQ376.05 73.34 382.27 73.34Q386.23 73.34 389.23 71.46VQ385.90 78.59 380.58 78.59Q374.77 78.59 371.55 75.36Q368.34 72.14 368.34 66.38Q368.34 60.40 371.81 56.91Q375.28 53.41 380.34 53.41Q385.59 53.41 388.46 56.53Q391.34 59.65 391.34 64.99ZM384.47 63.56Q384.47 58.41 380.30 58.41Q378.52 58.41 377.21 59.88Q375.91 61.36 375.63 63.56Z M410.46 48.14Q409.03 47.58 407.72 47.58Q404.16 47.58 404.16 51.45VHVHVHVHVHVQ396.77 46.92 399.45 44.41Q402.12 41.91 406.71 41.91Q408.96 41.91 410.46 42.38Z" fill="#e65f1a" />
</svg>